# xmcd
#
# Track frame offsets:
#	150
#	18932
#	36755
#	47277
#	63988
#	76402
#	87733
#	105492
#	126089
#	145446
#	166573
#	178818
#	190713
#	206772
#	219813
#
# Disc length: 3218
#
# Revision: 2
# Processed by: cddbd v1.5.1PL0 Copyright (c) Steve Scherf et al.
# Submitted via: audiograbber 1.81.02
# Normalized: r1:DSETVAR1
#
DISCID=c30c900f
DTITLE=Various Artist - The Winners 2001 [Disc 2]
DYEAR=2001
DGENRE=Country
TTITLE0=Keith Urban - Your Everything
TTITLE1=Sara Storer - Buffalo Bill
TTITLE2=The Sparnetts - 2 Pot Screamer
TTITLE3=Adam Brand - Good Friends
TTITLE4=Beccy Cole, Felicity, Darren Coggan and Adam Harvey - Do I Ever Cross Your Mind
TTITLE5=Tommy Emmanuel - Train To Dusseldorf
TTITLE6=Jamahl Hamilton - Leaving You Tomorrow
TTITLE7=Kasey Chambers - The Captain
TTITLE8=Brendon Walmsley and Bushwackers - Gypsy Spirit
TTITLE9=Lyn Bowtell - Where In The World
TTITLE10=Trev Warner - Lightning Ridge
TTITLE11=Tracy Coster - Old Tin Roof
TTITLE12=Lee Kernaghan - The Glass On The Bar
TTITLE13=Pixie Jenkins and Lindsay Butler - Cootamundra Wattle
TTITLE14=Crosby Sisters - Trouble In The Fields
EXTD=CMAA Country Music Awards (Australia)
EXTT0=
EXTT1=
EXTT2=
EXTT3=
EXTT4=
EXTT5=
EXTT6=
EXTT7=
EXTT8=
EXTT9=
EXTT10=
EXTT11=
EXTT12=
EXTT13=
EXTT14=
PLAYORDER=
